<mxfile host="app.diagrams.net" modified="2021-01-14T10:19:54.099Z" agent="5.0 (Macintosh; Intel Mac OS X 11_0_1) AppleWebKit/537.36 (KHTML, like Gecko) Chrome/87.0.4280.141 Safari/537.36" etag="7n_dcGLSduDJll7EwXKN" version="14.1.9" type="github">
  <diagram id="wimi6dBLouIUPQrJvmdh" name="Page-1">
    <mxGraphModel dx="1181" dy="1778" grid="1" gridSize="10" guides="1" tooltips="1" connect="1" arrows="1" fold="1" page="1" pageScale="1" pageWidth="850" pageHeight="1100" math="0" shadow="0">
      <root>
        <mxCell id="0" />
        <mxCell id="1" parent="0" />
        <mxCell id="q4YG6S2iQ_I2nMiaHhuc-1" value="Python/C Interface" style="rounded=0;whiteSpace=wrap;html=1;strokeWidth=2;fillColor=#f5f5f5;strokeColor=#666666;fontColor=#333333;" vertex="1" parent="1">
          <mxGeometry x="160" y="120" width="160" height="40" as="geometry" />
        </mxCell>
        <mxCell id="q4YG6S2iQ_I2nMiaHhuc-2" value="SystemVerilog VPI" style="rounded=0;whiteSpace=wrap;html=1;strokeWidth=2;fillColor=#f5f5f5;strokeColor=#666666;fontColor=#333333;" vertex="1" parent="1">
          <mxGeometry x="160" y="160" width="160" height="40" as="geometry" />
        </mxCell>
        <mxCell id="q4YG6S2iQ_I2nMiaHhuc-16" value="" style="edgeStyle=orthogonalEdgeStyle;rounded=0;orthogonalLoop=1;jettySize=auto;html=1;entryX=0;entryY=0.5;entryDx=0;entryDy=0;strokeWidth=2;" edge="1" parent="1" source="q4YG6S2iQ_I2nMiaHhuc-3" target="q4YG6S2iQ_I2nMiaHhuc-13">
          <mxGeometry relative="1" as="geometry">
            <mxPoint x="400" y="220" as="targetPoint" />
          </mxGeometry>
        </mxCell>
        <mxCell id="q4YG6S2iQ_I2nMiaHhuc-3" value="Hardware Verilog" style="rounded=0;whiteSpace=wrap;html=1;strokeWidth=2;" vertex="1" parent="1">
          <mxGeometry x="160" y="200" width="160" height="40" as="geometry" />
        </mxCell>
        <mxCell id="q4YG6S2iQ_I2nMiaHhuc-4" value="Python Signal Components" style="rounded=0;whiteSpace=wrap;html=1;strokeWidth=2;" vertex="1" parent="1">
          <mxGeometry x="160" y="80" width="160" height="40" as="geometry" />
        </mxCell>
        <mxCell id="q4YG6S2iQ_I2nMiaHhuc-5" value="Driver/Probe" style="text;html=1;align=left;verticalAlign=middle;resizable=0;points=[];autosize=1;" vertex="1" parent="1">
          <mxGeometry x="330" y="90" width="80" height="20" as="geometry" />
        </mxCell>
        <mxCell id="q4YG6S2iQ_I2nMiaHhuc-7" value="Python Hardware Abstraction" style="rounded=0;whiteSpace=wrap;html=1;strokeWidth=2;fillColor=#dae8fc;strokeColor=#6c8ebf;" vertex="1" parent="1">
          <mxGeometry x="160" y="40" width="160" height="40" as="geometry" />
        </mxCell>
        <mxCell id="q4YG6S2iQ_I2nMiaHhuc-8" value="DMA/Register RW" style="text;html=1;align=left;verticalAlign=middle;resizable=0;points=[];autosize=1;" vertex="1" parent="1">
          <mxGeometry x="325" y="50" width="110" height="20" as="geometry" />
        </mxCell>
        <mxCell id="q4YG6S2iQ_I2nMiaHhuc-19" style="edgeStyle=orthogonalEdgeStyle;rounded=0;orthogonalLoop=1;jettySize=auto;html=1;exitX=0.5;exitY=1;exitDx=0;exitDy=0;strokeWidth=2;" edge="1" parent="1" source="q4YG6S2iQ_I2nMiaHhuc-10" target="q4YG6S2iQ_I2nMiaHhuc-7">
          <mxGeometry relative="1" as="geometry" />
        </mxCell>
        <mxCell id="q4YG6S2iQ_I2nMiaHhuc-20" style="edgeStyle=orthogonalEdgeStyle;rounded=0;orthogonalLoop=1;jettySize=auto;html=1;exitX=0.5;exitY=1;exitDx=0;exitDy=0;strokeWidth=2;" edge="1" parent="1" source="q4YG6S2iQ_I2nMiaHhuc-10" target="q4YG6S2iQ_I2nMiaHhuc-12">
          <mxGeometry relative="1" as="geometry" />
        </mxCell>
        <mxCell id="q4YG6S2iQ_I2nMiaHhuc-10" value="Python Reference Model" style="rounded=0;whiteSpace=wrap;html=1;strokeWidth=2;" vertex="1" parent="1">
          <mxGeometry x="160" y="-40" width="160" height="40" as="geometry" />
        </mxCell>
        <mxCell id="q4YG6S2iQ_I2nMiaHhuc-14" style="edgeStyle=orthogonalEdgeStyle;rounded=0;orthogonalLoop=1;jettySize=auto;html=1;exitX=0.5;exitY=1;exitDx=0;exitDy=0;entryX=0.5;entryY=0;entryDx=0;entryDy=0;strokeWidth=2;" edge="1" parent="1" source="q4YG6S2iQ_I2nMiaHhuc-12" target="q4YG6S2iQ_I2nMiaHhuc-13">
          <mxGeometry relative="1" as="geometry" />
        </mxCell>
        <mxCell id="q4YG6S2iQ_I2nMiaHhuc-12" value="C Driver" style="rounded=0;whiteSpace=wrap;html=1;strokeWidth=2;fillColor=#dae8fc;strokeColor=#6c8ebf;" vertex="1" parent="1">
          <mxGeometry x="440" y="40" width="160" height="40" as="geometry" />
        </mxCell>
        <mxCell id="q4YG6S2iQ_I2nMiaHhuc-13" value="FPGA on-board" style="rounded=0;whiteSpace=wrap;html=1;strokeWidth=2;" vertex="1" parent="1">
          <mxGeometry x="440" y="200" width="160" height="40" as="geometry" />
        </mxCell>
        <mxCell id="q4YG6S2iQ_I2nMiaHhuc-17" value="Synthesize &amp;amp;&lt;br&gt;&amp;nbsp;Implementation" style="text;html=1;align=center;verticalAlign=middle;resizable=0;points=[];autosize=1;" vertex="1" parent="1">
          <mxGeometry x="330" y="205" width="100" height="30" as="geometry" />
        </mxCell>
      </root>
    </mxGraphModel>
  </diagram>
</mxfile>
